<svg xmlns="http://www.w3.org/2000/svg" viewBox="0 0 200 200" fill="white"><polygon points="135.5 47 144.25 47 153 47 153 38 144.25 38 135.5 38 126.75 38 118 38 118 47 126.75 47 135.5 47"/><polygon points="108.33 56 117 56 117 47 108.33 47 99.67 47 91 47 91 56 99.67 56 108.33 56"/><polygon points="82 74 91 74 91 65 91 56 82 56 73 56 73 65 82 65 82 74"/><polygon points="64.67 153 56 153 56 162 64.67 162 73.33 162 82 162 82 153 73.33 153 64.67 153"/><polygon points="91 144 82 144 82 153 91 153 100 153 100 144 91 144"/><polygon points="100 153 100 162 109 162 118 162 118 153 109 153 100 153"/><rect x="65" y="65" width="9" height="9"/><rect x="56" y="73" width="9" height="9"/><rect x="65" y="82" width="9" height="9"/><polygon points="56 91 56 82 47 82 47 91 47 100 56 100 56 91"/><polygon points="47 126.4 47 117.6 47 108.8 47 100 38 100 38 108.8 38 117.6 38 126.4 38 135.2 38 144 47 144 47 135.2 47 126.4"/><rect x="47" y="144" width="9" height="9"/><polygon points="153 47 153 55.67 153 64.33 153 73 162 73 162 64.33 162 55.67 162 47 153 47"/><polygon points="144 82 144 91 153 91 153 82 153 73 144 73 144 82"/><rect x="135" y="56" width="9" height="9"/><rect x="118" y="65" width="9" height="9"/><rect x="100" y="82" width="9" height="9"/><polygon points="135 100 135 109 144 109 144 100 144 91 135 91 135 100"/><polygon points="118 135 109 135 109 144 118 144 118 153 127 153 127 144 135 144 135 135 135 126 127 126 127 135 118 135"/><polygon points="109 109 100 109 100 118 109 118 118 118 118 109 109 109"/><rect x="91" y="118" width="9" height="9"/><rect x="56" y="109" width="9" height="9"/><rect x="118" y="118" width="9" height="9"/><rect x="126" y="109" width="9" height="9"/></svg>
